G75*
G70*
%OFA0B0*%
%FSLAX24Y24*%
%IPPOS*%
%LPD*%
%AMOC8*
5,1,8,0,0,1.08239X$1,22.5*
%
%ADD10C,0.0100*%
%ADD11C,0.0400*%
%ADD12OC8,0.0520*%
%ADD13C,0.0700*%
%ADD14OC8,0.0512*%
%ADD15C,0.0512*%
%ADD16C,0.0000*%
%ADD17C,0.1320*%
%ADD18C,0.0780*%
%ADD19R,0.0780X0.0780*%
%ADD20OC8,0.0700*%
D10*
X004500Y000180D02*
X035500Y000180D01*
X035500Y019430D01*
X004500Y019430D01*
X004500Y000180D01*
D11*
X010500Y014680D03*
X011500Y015680D03*
X010500Y016680D03*
D12*
X013750Y017430D03*
X013750Y013430D03*
X024750Y011930D03*
X028750Y011930D03*
X031250Y011680D03*
X034000Y011680D03*
X029500Y008180D03*
X029500Y004180D03*
X012750Y003680D03*
X008750Y003680D03*
X031250Y015680D03*
X034000Y015680D03*
D13*
X029500Y010717D03*
X029500Y009143D03*
X025000Y008180D03*
X024000Y008180D03*
X023000Y008180D03*
X022000Y008180D03*
X021000Y008180D03*
X016000Y008680D03*
X015000Y008680D03*
X014000Y008680D03*
X013000Y008680D03*
X012000Y008680D03*
D14*
X015250Y016930D03*
D15*
X015250Y015930D03*
X015250Y014930D03*
X015250Y013930D03*
D16*
X024256Y015430D02*
X024258Y015480D01*
X024264Y015530D01*
X024274Y015579D01*
X024287Y015628D01*
X024305Y015675D01*
X024326Y015721D01*
X024350Y015764D01*
X024378Y015806D01*
X024409Y015846D01*
X024443Y015883D01*
X024480Y015917D01*
X024520Y015948D01*
X024562Y015976D01*
X024605Y016000D01*
X024651Y016021D01*
X024698Y016039D01*
X024747Y016052D01*
X024796Y016062D01*
X024846Y016068D01*
X024896Y016070D01*
X024946Y016068D01*
X024996Y016062D01*
X025045Y016052D01*
X025094Y016039D01*
X025141Y016021D01*
X025187Y016000D01*
X025230Y015976D01*
X025272Y015948D01*
X025312Y015917D01*
X025349Y015883D01*
X025383Y015846D01*
X025414Y015806D01*
X025442Y015764D01*
X025466Y015721D01*
X025487Y015675D01*
X025505Y015628D01*
X025518Y015579D01*
X025528Y015530D01*
X025534Y015480D01*
X025536Y015430D01*
X025534Y015380D01*
X025528Y015330D01*
X025518Y015281D01*
X025505Y015232D01*
X025487Y015185D01*
X025466Y015139D01*
X025442Y015096D01*
X025414Y015054D01*
X025383Y015014D01*
X025349Y014977D01*
X025312Y014943D01*
X025272Y014912D01*
X025230Y014884D01*
X025187Y014860D01*
X025141Y014839D01*
X025094Y014821D01*
X025045Y014808D01*
X024996Y014798D01*
X024946Y014792D01*
X024896Y014790D01*
X024846Y014792D01*
X024796Y014798D01*
X024747Y014808D01*
X024698Y014821D01*
X024651Y014839D01*
X024605Y014860D01*
X024562Y014884D01*
X024520Y014912D01*
X024480Y014943D01*
X024443Y014977D01*
X024409Y015014D01*
X024378Y015054D01*
X024350Y015096D01*
X024326Y015139D01*
X024305Y015185D01*
X024287Y015232D01*
X024274Y015281D01*
X024264Y015330D01*
X024258Y015380D01*
X024256Y015430D01*
D17*
X024896Y015430D03*
D18*
X026610Y015650D03*
X028390Y015650D03*
X028390Y018210D03*
X026610Y018210D03*
X006602Y016778D03*
X006602Y015778D03*
X006602Y014778D03*
X006602Y013778D03*
X006602Y012778D03*
X006602Y011778D03*
X006602Y010778D03*
X006602Y009778D03*
X006602Y008778D03*
X006602Y007778D03*
X006602Y006778D03*
X006602Y005778D03*
X006602Y004778D03*
X006602Y003778D03*
X006602Y002778D03*
X015500Y002680D03*
X016500Y002680D03*
X017500Y002680D03*
X018500Y002680D03*
X019500Y002680D03*
X020500Y002680D03*
X023000Y002680D03*
X024000Y002680D03*
X025000Y002680D03*
X028000Y002680D03*
X029000Y002680D03*
X030000Y002680D03*
X032000Y002680D03*
X033000Y002680D03*
X034000Y002680D03*
D19*
X026000Y002680D03*
X006602Y017778D03*
D20*
X030250Y017430D03*
X031250Y017430D03*
X033000Y017430D03*
X034000Y017430D03*
M02*
