%
M48
M72
T01C0.0240
T02C0.0315
T03C0.0320
T04C0.0354
T05C0.0400
T06C0.1280
%
T01
X10500Y14680
X11500Y15680
X10500Y16680
T02
X29500Y9143
X29500Y10717
X15250Y14930
X15250Y13930
X15250Y15930
X15250Y16930
T03
X8750Y3680
X12750Y3680
X24750Y11930
X28750Y11930
X31250Y11680
X34000Y11680
X29500Y8180
X29500Y4180
X13750Y13430
X13750Y17430
X30250Y17430
X31250Y17430
X33000Y17430
X34000Y17430
X34000Y15680
X31250Y15680
T04
X12000Y8680
X13000Y8680
X14000Y8680
X15000Y8680
X16000Y8680
X21000Y8180
X22000Y8180
X23000Y8180
X24000Y8180
X25000Y8180
T05
X6602Y2778
X6602Y3778
X6602Y4778
X6602Y5778
X6602Y6778
X6602Y7778
X6602Y8778
X6602Y9778
X6602Y10778
X6602Y11778
X6602Y12778
X6602Y13778
X6602Y14778
X6602Y15778
X6602Y16778
X6602Y17778
X26610Y15650
X28390Y15650
X28390Y18210
X26610Y18210
X26000Y2680
X25000Y2680
X24000Y2680
X23000Y2680
X20500Y2680
X19500Y2680
X18500Y2680
X17500Y2680
X16500Y2680
X15500Y2680
X28000Y2680
X29000Y2680
X30000Y2680
X32000Y2680
X33000Y2680
X34000Y2680
T06
X24896Y15430
M30
