G75*
G70*
%OFA0B0*%
%FSLAX24Y24*%
%IPPOS*%
%LPD*%
%AMOC8*
5,1,8,0,0,1.08239X$1,22.5*
%
%ADD10C,0.0100*%
%ADD11C,0.0360*%
%ADD12OC8,0.0480*%
%ADD13C,0.0660*%
%ADD14OC8,0.0472*%
%ADD15C,0.0472*%
%ADD16C,0.0000*%
%ADD17C,0.0740*%
%ADD18R,0.0740X0.0740*%
%ADD19OC8,0.0660*%
%ADD20C,0.0160*%
D10*
X004500Y000180D02*
X035500Y000180D01*
X035500Y019430D01*
X004500Y019430D01*
X004500Y000180D01*
D11*
X010500Y014680D03*
X011500Y015680D03*
X010500Y016680D03*
D12*
X013750Y017430D03*
X013750Y013430D03*
X024750Y011930D03*
X028750Y011930D03*
X031250Y011680D03*
X034000Y011680D03*
X029500Y008180D03*
X029500Y004180D03*
X012750Y003680D03*
X008750Y003680D03*
X031250Y015680D03*
X034000Y015680D03*
D13*
X029500Y010717D03*
X029500Y009143D03*
X025000Y008180D03*
X024000Y008180D03*
X023000Y008180D03*
X022000Y008180D03*
X021000Y008180D03*
X016000Y008680D03*
X015000Y008680D03*
X014000Y008680D03*
X013000Y008680D03*
X012000Y008680D03*
D14*
X015250Y016930D03*
D15*
X015250Y015930D03*
X015250Y014930D03*
X015250Y013930D03*
D16*
X024256Y015430D02*
X024258Y015480D01*
X024264Y015530D01*
X024274Y015579D01*
X024287Y015628D01*
X024305Y015675D01*
X024326Y015721D01*
X024350Y015764D01*
X024378Y015806D01*
X024409Y015846D01*
X024443Y015883D01*
X024480Y015917D01*
X024520Y015948D01*
X024562Y015976D01*
X024605Y016000D01*
X024651Y016021D01*
X024698Y016039D01*
X024747Y016052D01*
X024796Y016062D01*
X024846Y016068D01*
X024896Y016070D01*
X024946Y016068D01*
X024996Y016062D01*
X025045Y016052D01*
X025094Y016039D01*
X025141Y016021D01*
X025187Y016000D01*
X025230Y015976D01*
X025272Y015948D01*
X025312Y015917D01*
X025349Y015883D01*
X025383Y015846D01*
X025414Y015806D01*
X025442Y015764D01*
X025466Y015721D01*
X025487Y015675D01*
X025505Y015628D01*
X025518Y015579D01*
X025528Y015530D01*
X025534Y015480D01*
X025536Y015430D01*
X025534Y015380D01*
X025528Y015330D01*
X025518Y015281D01*
X025505Y015232D01*
X025487Y015185D01*
X025466Y015139D01*
X025442Y015096D01*
X025414Y015054D01*
X025383Y015014D01*
X025349Y014977D01*
X025312Y014943D01*
X025272Y014912D01*
X025230Y014884D01*
X025187Y014860D01*
X025141Y014839D01*
X025094Y014821D01*
X025045Y014808D01*
X024996Y014798D01*
X024946Y014792D01*
X024896Y014790D01*
X024846Y014792D01*
X024796Y014798D01*
X024747Y014808D01*
X024698Y014821D01*
X024651Y014839D01*
X024605Y014860D01*
X024562Y014884D01*
X024520Y014912D01*
X024480Y014943D01*
X024443Y014977D01*
X024409Y015014D01*
X024378Y015054D01*
X024350Y015096D01*
X024326Y015139D01*
X024305Y015185D01*
X024287Y015232D01*
X024274Y015281D01*
X024264Y015330D01*
X024258Y015380D01*
X024256Y015430D01*
D17*
X026610Y015650D03*
X028390Y015650D03*
X028390Y018210D03*
X026610Y018210D03*
X006602Y016778D03*
X006602Y015778D03*
X006602Y014778D03*
X006602Y013778D03*
X006602Y012778D03*
X006602Y011778D03*
X006602Y010778D03*
X006602Y009778D03*
X006602Y008778D03*
X006602Y007778D03*
X006602Y006778D03*
X006602Y005778D03*
X006602Y004778D03*
X006602Y003778D03*
X006602Y002778D03*
X015500Y002680D03*
X016500Y002680D03*
X017500Y002680D03*
X018500Y002680D03*
X019500Y002680D03*
X020500Y002680D03*
X023000Y002680D03*
X024000Y002680D03*
X025000Y002680D03*
X028000Y002680D03*
X029000Y002680D03*
X030000Y002680D03*
X032000Y002680D03*
X033000Y002680D03*
X034000Y002680D03*
D18*
X026000Y002680D03*
X006602Y017778D03*
D19*
X030250Y017430D03*
X031250Y017430D03*
X033000Y017430D03*
X034000Y017430D03*
D20*
X034570Y017457D02*
X035210Y017457D01*
X035210Y017615D02*
X034570Y017615D01*
X034570Y017666D02*
X034236Y018000D01*
X033764Y018000D01*
X033500Y017736D01*
X033236Y018000D01*
X032764Y018000D01*
X032430Y017666D01*
X032430Y017194D01*
X032764Y016860D01*
X033236Y016860D01*
X033500Y017124D01*
X033764Y016860D01*
X034236Y016860D01*
X034570Y017194D01*
X034570Y017666D01*
X034463Y017774D02*
X035210Y017774D01*
X035210Y017932D02*
X034304Y017932D01*
X033696Y017932D02*
X033304Y017932D01*
X033463Y017774D02*
X033537Y017774D01*
X032696Y017932D02*
X031554Y017932D01*
X031486Y018000D02*
X031014Y018000D01*
X030750Y017736D01*
X030486Y018000D01*
X030014Y018000D01*
X029680Y017666D01*
X029680Y017194D01*
X030014Y016860D01*
X030486Y016860D01*
X030750Y017124D01*
X031014Y016860D01*
X031486Y016860D01*
X031820Y017194D01*
X031820Y017666D01*
X031486Y018000D01*
X031713Y017774D02*
X032537Y017774D01*
X032430Y017615D02*
X031820Y017615D01*
X031820Y017457D02*
X032430Y017457D01*
X032430Y017298D02*
X031820Y017298D01*
X031766Y017140D02*
X032484Y017140D01*
X032643Y016981D02*
X031607Y016981D01*
X030893Y016981D02*
X030607Y016981D01*
X029893Y016981D02*
X015726Y016981D01*
X015726Y017127D02*
X015726Y016733D01*
X015447Y016454D01*
X015053Y016454D01*
X014774Y016733D01*
X014774Y017127D01*
X015053Y017406D01*
X015447Y017406D01*
X015726Y017127D01*
X015714Y017140D02*
X029734Y017140D01*
X029680Y017298D02*
X015555Y017298D01*
X014945Y017298D02*
X014230Y017298D01*
X014230Y017231D02*
X013949Y016950D01*
X013551Y016950D01*
X013270Y017231D01*
X013270Y017629D01*
X013551Y017910D01*
X013949Y017910D01*
X014230Y017629D01*
X014230Y017231D01*
X014138Y017140D02*
X014786Y017140D01*
X014774Y016981D02*
X013980Y016981D01*
X013520Y016981D02*
X010793Y016981D01*
X010738Y017036D02*
X010584Y017100D01*
X010416Y017100D01*
X010262Y017036D01*
X010144Y016918D01*
X010080Y016764D01*
X010080Y016596D01*
X010144Y016442D01*
X010262Y016324D01*
X010416Y016260D01*
X010584Y016260D01*
X010738Y016324D01*
X010856Y016442D01*
X010920Y016596D01*
X010920Y016764D01*
X010856Y016918D01*
X010738Y017036D01*
X010896Y016823D02*
X014774Y016823D01*
X014842Y016664D02*
X010920Y016664D01*
X010882Y016506D02*
X015001Y016506D01*
X015012Y016347D02*
X010761Y016347D01*
X011262Y016036D02*
X011416Y016100D01*
X011584Y016100D01*
X011738Y016036D01*
X011856Y015918D01*
X011920Y015764D01*
X011920Y015596D01*
X011856Y015442D01*
X011738Y015324D01*
X011584Y015260D01*
X011416Y015260D01*
X011262Y015324D01*
X011144Y015442D01*
X011080Y015596D01*
X011080Y015764D01*
X011144Y015918D01*
X011262Y016036D01*
X011256Y016030D02*
X007158Y016030D01*
X007119Y016124D02*
X007212Y015900D01*
X007212Y015657D01*
X007119Y015433D01*
X006965Y015278D01*
X007119Y015124D01*
X007130Y015098D01*
X009215Y015098D01*
X009333Y015050D01*
X009423Y014960D01*
X009423Y014960D01*
X011431Y012951D01*
X011521Y012861D01*
X011570Y012744D01*
X011570Y009056D01*
X011677Y009163D01*
X011887Y009250D01*
X012113Y009250D01*
X012323Y009163D01*
X012483Y009003D01*
X012500Y008962D01*
X012517Y009003D01*
X012677Y009163D01*
X012887Y009250D01*
X013113Y009250D01*
X013116Y009249D01*
X013979Y010111D01*
X014069Y010201D01*
X014186Y010250D01*
X024477Y010250D01*
X024367Y010360D01*
X018436Y010360D01*
X018319Y010409D01*
X015274Y013454D01*
X015155Y013454D01*
X014980Y013526D01*
X014846Y013660D01*
X014774Y013835D01*
X014774Y014025D01*
X014846Y014200D01*
X014980Y014334D01*
X015155Y014406D01*
X015345Y014406D01*
X015520Y014334D01*
X015654Y014200D01*
X015726Y014025D01*
X015726Y013906D01*
X018633Y011000D01*
X024478Y011000D01*
X024430Y011116D01*
X024430Y011571D01*
X024270Y011731D01*
X024270Y012129D01*
X024551Y012410D01*
X024949Y012410D01*
X025230Y012129D01*
X025230Y011731D01*
X025070Y011571D01*
X025070Y011313D01*
X032181Y004201D01*
X032271Y004111D01*
X032320Y003994D01*
X032320Y003208D01*
X032346Y003197D01*
X032500Y003043D01*
X032654Y003197D01*
X032879Y003290D01*
X033121Y003290D01*
X033346Y003197D01*
X033500Y003043D01*
X033654Y003197D01*
X033879Y003290D01*
X034121Y003290D01*
X034346Y003197D01*
X034517Y003026D01*
X034610Y002801D01*
X034610Y002559D01*
X034517Y002334D01*
X034346Y002163D01*
X034121Y002070D01*
X033879Y002070D01*
X033654Y002163D01*
X033500Y002317D01*
X033346Y002163D01*
X033121Y002070D01*
X032879Y002070D01*
X032654Y002163D01*
X032500Y002317D01*
X032346Y002163D01*
X032121Y002070D01*
X031879Y002070D01*
X031654Y002163D01*
X031483Y002334D01*
X031390Y002559D01*
X031390Y002801D01*
X031483Y003026D01*
X031654Y003197D01*
X031680Y003208D01*
X031680Y003797D01*
X029820Y005657D01*
X029820Y004539D01*
X029980Y004379D01*
X029980Y003981D01*
X029699Y003700D01*
X029301Y003700D01*
X029020Y003981D01*
X029020Y004379D01*
X029180Y004539D01*
X029180Y005547D01*
X028320Y006407D01*
X028320Y003208D01*
X028346Y003197D01*
X028500Y003043D01*
X028654Y003197D01*
X028879Y003290D01*
X029121Y003290D01*
X029346Y003197D01*
X029500Y003043D01*
X029654Y003197D01*
X029879Y003290D01*
X030121Y003290D01*
X030346Y003197D01*
X030517Y003026D01*
X030610Y002801D01*
X030610Y002559D01*
X030517Y002334D01*
X030346Y002163D01*
X030121Y002070D01*
X029879Y002070D01*
X029654Y002163D01*
X029500Y002317D01*
X029346Y002163D01*
X029121Y002070D01*
X028879Y002070D01*
X028853Y002081D01*
X028271Y001499D01*
X028181Y001409D01*
X028064Y001360D01*
X014686Y001360D01*
X014569Y001409D01*
X014479Y001499D01*
X012777Y003200D01*
X012551Y003200D01*
X012270Y003481D01*
X012270Y003879D01*
X012551Y004160D01*
X012949Y004160D01*
X013230Y003879D01*
X013230Y003653D01*
X014883Y002000D01*
X021680Y002000D01*
X021680Y007696D01*
X021677Y007697D01*
X021517Y007857D01*
X021500Y007898D01*
X021483Y007857D01*
X021323Y007697D01*
X021113Y007610D01*
X020887Y007610D01*
X020884Y007611D01*
X020771Y007499D01*
X020681Y007409D01*
X020564Y007360D01*
X016273Y007360D01*
X020353Y003279D01*
X020379Y003290D01*
X020621Y003290D01*
X020846Y003197D01*
X021017Y003026D01*
X021110Y002801D01*
X021110Y002559D01*
X021017Y002334D01*
X020846Y002163D01*
X020621Y002070D01*
X020379Y002070D01*
X020154Y002163D01*
X020000Y002317D01*
X019846Y002163D01*
X019621Y002070D01*
X019379Y002070D01*
X019154Y002163D01*
X019000Y002317D01*
X018846Y002163D01*
X018621Y002070D01*
X018379Y002070D01*
X018154Y002163D01*
X018000Y002317D01*
X017846Y002163D01*
X017621Y002070D01*
X017379Y002070D01*
X017154Y002163D01*
X017000Y002317D01*
X016846Y002163D01*
X016621Y002070D01*
X016379Y002070D01*
X016154Y002163D01*
X016000Y002317D01*
X015846Y002163D01*
X015621Y002070D01*
X015379Y002070D01*
X015154Y002163D01*
X014983Y002334D01*
X014890Y002559D01*
X014890Y002801D01*
X014983Y003026D01*
X015154Y003197D01*
X015379Y003290D01*
X015621Y003290D01*
X015846Y003197D01*
X016000Y003043D01*
X016154Y003197D01*
X016379Y003290D01*
X016621Y003290D01*
X016846Y003197D01*
X017000Y003043D01*
X017154Y003197D01*
X017379Y003290D01*
X017621Y003290D01*
X017846Y003197D01*
X018000Y003043D01*
X018154Y003197D01*
X018379Y003290D01*
X018621Y003290D01*
X018846Y003197D01*
X019000Y003043D01*
X019154Y003197D01*
X019379Y003290D01*
X019437Y003290D01*
X015867Y006860D01*
X012186Y006860D01*
X012069Y006909D01*
X011979Y006999D01*
X010979Y007999D01*
X010930Y008116D01*
X010930Y012547D01*
X009019Y014458D01*
X007130Y014458D01*
X007119Y014433D01*
X006965Y014278D01*
X007119Y014124D01*
X007212Y013900D01*
X007212Y013657D01*
X007119Y013433D01*
X006965Y013278D01*
X007119Y013124D01*
X007212Y012900D01*
X007212Y012657D01*
X007119Y012433D01*
X006965Y012278D01*
X007119Y012124D01*
X007212Y011900D01*
X007212Y011657D01*
X007119Y011433D01*
X006965Y011278D01*
X007119Y011124D01*
X007212Y010900D01*
X007212Y010657D01*
X007119Y010433D01*
X006965Y010278D01*
X007119Y010124D01*
X007212Y009900D01*
X007212Y009657D01*
X007119Y009433D01*
X006965Y009278D01*
X007119Y009124D01*
X007212Y008900D01*
X007212Y008657D01*
X007119Y008433D01*
X006965Y008278D01*
X007119Y008124D01*
X007212Y007900D01*
X007212Y007657D01*
X007119Y007433D01*
X006965Y007278D01*
X007119Y007124D01*
X007212Y006900D01*
X007212Y006657D01*
X007119Y006433D01*
X006965Y006278D01*
X007119Y006124D01*
X007212Y005900D01*
X007212Y005657D01*
X007119Y005433D01*
X006965Y005278D01*
X007119Y005124D01*
X007212Y004900D01*
X007212Y004657D01*
X007119Y004433D01*
X006965Y004278D01*
X007119Y004124D01*
X007212Y003900D01*
X007212Y003657D01*
X007119Y003433D01*
X006965Y003278D01*
X007119Y003124D01*
X007212Y002900D01*
X007212Y002657D01*
X007119Y002433D01*
X006948Y002261D01*
X006724Y002168D01*
X006481Y002168D01*
X006257Y002261D01*
X006085Y002433D01*
X005992Y002657D01*
X005992Y002900D01*
X006085Y003124D01*
X006240Y003278D01*
X006085Y003433D01*
X005992Y003657D01*
X005992Y003900D01*
X006085Y004124D01*
X006240Y004278D01*
X006085Y004433D01*
X005992Y004657D01*
X005992Y004900D01*
X006085Y005124D01*
X006240Y005278D01*
X006085Y005433D01*
X005992Y005657D01*
X005992Y005900D01*
X006085Y006124D01*
X006240Y006278D01*
X006085Y006433D01*
X005992Y006657D01*
X005992Y006900D01*
X006085Y007124D01*
X006240Y007278D01*
X006085Y007433D01*
X005992Y007657D01*
X005992Y007900D01*
X006085Y008124D01*
X006240Y008278D01*
X006085Y008433D01*
X005992Y008657D01*
X005992Y008900D01*
X006085Y009124D01*
X006240Y009278D01*
X006085Y009433D01*
X005992Y009657D01*
X005992Y009900D01*
X006085Y010124D01*
X006240Y010278D01*
X006085Y010433D01*
X005992Y010657D01*
X005992Y010900D01*
X006085Y011124D01*
X006240Y011278D01*
X006085Y011433D01*
X005992Y011657D01*
X005992Y011900D01*
X006085Y012124D01*
X006240Y012278D01*
X006085Y012433D01*
X005992Y012657D01*
X005992Y012900D01*
X006085Y013124D01*
X006240Y013278D01*
X006085Y013433D01*
X005992Y013657D01*
X005992Y013900D01*
X006085Y014124D01*
X006240Y014278D01*
X006085Y014433D01*
X005992Y014657D01*
X005992Y014900D01*
X006085Y015124D01*
X006240Y015278D01*
X006085Y015433D01*
X005992Y015657D01*
X005992Y015900D01*
X006085Y016124D01*
X006240Y016278D01*
X006085Y016433D01*
X005992Y016657D01*
X005992Y016900D01*
X006085Y017124D01*
X006146Y017185D01*
X006096Y017205D01*
X006029Y017272D01*
X005992Y017361D01*
X005992Y018196D01*
X006029Y018284D01*
X006096Y018352D01*
X006185Y018388D01*
X007020Y018388D01*
X007108Y018352D01*
X007176Y018284D01*
X007212Y018196D01*
X007212Y017361D01*
X007176Y017272D01*
X007108Y017205D01*
X007059Y017185D01*
X007119Y017124D01*
X007212Y016900D01*
X007212Y016657D01*
X007119Y016433D01*
X006965Y016278D01*
X007119Y016124D01*
X007055Y016189D02*
X014842Y016189D01*
X014846Y016200D02*
X014774Y016025D01*
X014774Y015835D01*
X014846Y015660D01*
X014980Y015526D01*
X015155Y015454D01*
X015345Y015454D01*
X015520Y015526D01*
X015654Y015660D01*
X015726Y015835D01*
X015726Y016025D01*
X015654Y016200D01*
X015520Y016334D01*
X015345Y016406D01*
X015155Y016406D01*
X014980Y016334D01*
X014846Y016200D01*
X014776Y016030D02*
X011744Y016030D01*
X011875Y015872D02*
X014774Y015872D01*
X014824Y015713D02*
X011920Y015713D01*
X011903Y015555D02*
X014952Y015555D01*
X014980Y015334D02*
X014846Y015200D01*
X014774Y015025D01*
X014774Y014835D01*
X014846Y014660D01*
X014980Y014526D01*
X015155Y014454D01*
X015345Y014454D01*
X015520Y014526D01*
X015654Y014660D01*
X015726Y014835D01*
X015726Y015025D01*
X015654Y015200D01*
X015520Y015334D01*
X015345Y015406D01*
X015155Y015406D01*
X014980Y015334D01*
X014884Y015238D02*
X007006Y015238D01*
X007083Y015396D02*
X011190Y015396D01*
X011097Y015555D02*
X007170Y015555D01*
X007212Y015713D02*
X011080Y015713D01*
X011125Y015872D02*
X007212Y015872D01*
X007034Y016347D02*
X010239Y016347D01*
X010118Y016506D02*
X007150Y016506D01*
X007212Y016664D02*
X010080Y016664D01*
X010104Y016823D02*
X007212Y016823D01*
X007179Y016981D02*
X010207Y016981D01*
X011810Y015396D02*
X015131Y015396D01*
X015369Y015396D02*
X024016Y015396D01*
X024016Y015255D02*
X024150Y014932D01*
X024397Y014684D01*
X024721Y014550D01*
X025071Y014550D01*
X025394Y014684D01*
X025641Y014932D01*
X025775Y015255D01*
X025775Y015605D01*
X025641Y015928D01*
X025394Y016176D01*
X025071Y016310D01*
X024721Y016310D01*
X024397Y016176D01*
X024150Y015928D01*
X024016Y015605D01*
X024016Y015255D01*
X024023Y015238D02*
X015616Y015238D01*
X015704Y015079D02*
X024089Y015079D01*
X024161Y014921D02*
X015726Y014921D01*
X015696Y014762D02*
X024319Y014762D01*
X024592Y014604D02*
X015597Y014604D01*
X015567Y014287D02*
X035210Y014287D01*
X035210Y014445D02*
X010857Y014445D01*
X010856Y014442D02*
X010920Y014596D01*
X010920Y014764D01*
X010856Y014918D01*
X010738Y015036D01*
X010584Y015100D01*
X010416Y015100D01*
X010262Y015036D01*
X010144Y014918D01*
X010080Y014764D01*
X010080Y014596D01*
X010144Y014442D01*
X010262Y014324D01*
X010416Y014260D01*
X010584Y014260D01*
X010738Y014324D01*
X010856Y014442D01*
X010920Y014604D02*
X014903Y014604D01*
X014804Y014762D02*
X010920Y014762D01*
X010853Y014921D02*
X014774Y014921D01*
X014796Y015079D02*
X010634Y015079D01*
X010366Y015079D02*
X009262Y015079D01*
X009462Y014921D02*
X010147Y014921D01*
X010080Y014762D02*
X009621Y014762D01*
X009779Y014604D02*
X010080Y014604D01*
X010143Y014445D02*
X009938Y014445D01*
X010096Y014287D02*
X010352Y014287D01*
X010255Y014128D02*
X014817Y014128D01*
X014774Y013970D02*
X010413Y013970D01*
X010572Y013811D02*
X013452Y013811D01*
X013551Y013910D02*
X013270Y013629D01*
X013270Y013231D01*
X013551Y012950D01*
X013949Y012950D01*
X014230Y013231D01*
X014230Y013629D01*
X013949Y013910D01*
X013551Y013910D01*
X013294Y013653D02*
X010730Y013653D01*
X010889Y013494D02*
X013270Y013494D01*
X013270Y013336D02*
X011047Y013336D01*
X011206Y013177D02*
X013324Y013177D01*
X013483Y013019D02*
X011364Y013019D01*
X011522Y012860D02*
X015867Y012860D01*
X015709Y013019D02*
X014017Y013019D01*
X014176Y013177D02*
X015550Y013177D01*
X015392Y013336D02*
X014230Y013336D01*
X014230Y013494D02*
X015058Y013494D01*
X014854Y013653D02*
X014206Y013653D01*
X014048Y013811D02*
X014784Y013811D01*
X015250Y013930D02*
X018500Y010680D01*
X024500Y010680D01*
X029500Y005680D01*
X029500Y004180D01*
X029020Y004143D02*
X028320Y004143D01*
X028320Y004301D02*
X029020Y004301D01*
X029101Y004460D02*
X028320Y004460D01*
X028320Y004618D02*
X029180Y004618D01*
X029180Y004777D02*
X028320Y004777D01*
X028320Y004935D02*
X029180Y004935D01*
X029180Y005094D02*
X028320Y005094D01*
X028320Y005252D02*
X029180Y005252D01*
X029180Y005411D02*
X028320Y005411D01*
X028320Y005569D02*
X029158Y005569D01*
X029000Y005728D02*
X028320Y005728D01*
X028320Y005886D02*
X028841Y005886D01*
X028683Y006045D02*
X028320Y006045D01*
X028320Y006203D02*
X028524Y006203D01*
X028366Y006362D02*
X028320Y006362D01*
X028000Y006430D02*
X028000Y002680D01*
X027577Y002241D02*
X026601Y002241D01*
X026610Y002262D02*
X026610Y003098D01*
X026573Y003186D01*
X026506Y003253D01*
X026418Y003290D01*
X025582Y003290D01*
X025494Y003253D01*
X025427Y003186D01*
X025406Y003137D01*
X025346Y003197D01*
X025121Y003290D01*
X024879Y003290D01*
X024654Y003197D01*
X024500Y003043D01*
X024346Y003197D01*
X024320Y003208D01*
X024320Y007696D01*
X024323Y007697D01*
X024483Y007857D01*
X024500Y007898D01*
X024517Y007857D01*
X024677Y007697D01*
X024887Y007610D01*
X025113Y007610D01*
X025323Y007697D01*
X025483Y007857D01*
X025570Y008067D01*
X025570Y008293D01*
X025489Y008488D01*
X027680Y006297D01*
X027680Y003208D01*
X027654Y003197D01*
X027483Y003026D01*
X027390Y002801D01*
X027390Y002559D01*
X027483Y002334D01*
X027654Y002163D01*
X027879Y002070D01*
X027937Y002070D01*
X027867Y002000D01*
X022320Y002000D01*
X022320Y007696D01*
X022323Y007697D01*
X022483Y007857D01*
X022500Y007898D01*
X022517Y007857D01*
X022677Y007697D01*
X022887Y007610D01*
X023113Y007610D01*
X023323Y007697D01*
X023483Y007857D01*
X023500Y007898D01*
X023517Y007857D01*
X023677Y007697D01*
X023680Y007696D01*
X023680Y003208D01*
X023654Y003197D01*
X023500Y003043D01*
X023346Y003197D01*
X023121Y003290D01*
X022879Y003290D01*
X022654Y003197D01*
X022483Y003026D01*
X022390Y002801D01*
X022390Y002559D01*
X022483Y002334D01*
X022654Y002163D01*
X022879Y002070D01*
X023121Y002070D01*
X023346Y002163D01*
X023500Y002317D01*
X023654Y002163D01*
X023879Y002070D01*
X024121Y002070D01*
X024346Y002163D01*
X024500Y002317D01*
X024654Y002163D01*
X024879Y002070D01*
X025121Y002070D01*
X025346Y002163D01*
X025406Y002223D01*
X025427Y002174D01*
X025494Y002107D01*
X025582Y002070D01*
X026418Y002070D01*
X026506Y002107D01*
X026573Y002174D01*
X026610Y002262D01*
X026610Y002399D02*
X027456Y002399D01*
X027390Y002558D02*
X026610Y002558D01*
X026610Y002716D02*
X027390Y002716D01*
X027420Y002875D02*
X026610Y002875D01*
X026610Y003033D02*
X027490Y003033D01*
X027649Y003192D02*
X026568Y003192D01*
X027680Y003350D02*
X024320Y003350D01*
X024320Y003509D02*
X027680Y003509D01*
X027680Y003667D02*
X024320Y003667D01*
X024320Y003826D02*
X027680Y003826D01*
X027680Y003984D02*
X024320Y003984D01*
X024320Y004143D02*
X027680Y004143D01*
X027680Y004301D02*
X024320Y004301D01*
X024320Y004460D02*
X027680Y004460D01*
X027680Y004618D02*
X024320Y004618D01*
X024320Y004777D02*
X027680Y004777D01*
X027680Y004935D02*
X024320Y004935D01*
X024320Y005094D02*
X027680Y005094D01*
X027680Y005252D02*
X024320Y005252D01*
X024320Y005411D02*
X027680Y005411D01*
X027680Y005569D02*
X024320Y005569D01*
X024320Y005728D02*
X027680Y005728D01*
X027680Y005886D02*
X024320Y005886D01*
X024320Y006045D02*
X027680Y006045D01*
X027680Y006203D02*
X024320Y006203D01*
X024320Y006362D02*
X027616Y006362D01*
X027457Y006520D02*
X024320Y006520D01*
X024320Y006679D02*
X027299Y006679D01*
X027140Y006837D02*
X024320Y006837D01*
X024320Y006996D02*
X026982Y006996D01*
X026823Y007154D02*
X024320Y007154D01*
X024320Y007313D02*
X026665Y007313D01*
X026506Y007471D02*
X024320Y007471D01*
X024320Y007630D02*
X024840Y007630D01*
X024586Y007788D02*
X024414Y007788D01*
X024000Y008180D02*
X024000Y002680D01*
X024423Y002241D02*
X024577Y002241D01*
X024850Y002082D02*
X024150Y002082D01*
X023850Y002082D02*
X023150Y002082D01*
X022850Y002082D02*
X022320Y002082D01*
X022320Y002241D02*
X022577Y002241D01*
X022456Y002399D02*
X022320Y002399D01*
X022320Y002558D02*
X022390Y002558D01*
X022390Y002716D02*
X022320Y002716D01*
X022320Y002875D02*
X022420Y002875D01*
X022490Y003033D02*
X022320Y003033D01*
X022320Y003192D02*
X022649Y003192D01*
X022320Y003350D02*
X023680Y003350D01*
X023680Y003509D02*
X022320Y003509D01*
X022320Y003667D02*
X023680Y003667D01*
X023680Y003826D02*
X022320Y003826D01*
X022320Y003984D02*
X023680Y003984D01*
X023680Y004143D02*
X022320Y004143D01*
X022320Y004301D02*
X023680Y004301D01*
X023680Y004460D02*
X022320Y004460D01*
X022320Y004618D02*
X023680Y004618D01*
X023680Y004777D02*
X022320Y004777D01*
X022320Y004935D02*
X023680Y004935D01*
X023680Y005094D02*
X022320Y005094D01*
X022320Y005252D02*
X023680Y005252D01*
X023680Y005411D02*
X022320Y005411D01*
X022320Y005569D02*
X023680Y005569D01*
X023680Y005728D02*
X022320Y005728D01*
X022320Y005886D02*
X023680Y005886D01*
X023680Y006045D02*
X022320Y006045D01*
X022320Y006203D02*
X023680Y006203D01*
X023680Y006362D02*
X022320Y006362D01*
X022320Y006520D02*
X023680Y006520D01*
X023680Y006679D02*
X022320Y006679D01*
X022320Y006837D02*
X023680Y006837D01*
X023680Y006996D02*
X022320Y006996D01*
X022320Y007154D02*
X023680Y007154D01*
X023680Y007313D02*
X022320Y007313D01*
X022320Y007471D02*
X023680Y007471D01*
X023680Y007630D02*
X023160Y007630D01*
X023414Y007788D02*
X023586Y007788D01*
X023000Y008180D02*
X022000Y009180D01*
X015500Y009180D01*
X015000Y008680D01*
X015390Y008264D02*
X015610Y008264D01*
X015677Y008197D02*
X015517Y008357D01*
X015500Y008398D01*
X015483Y008357D01*
X015323Y008197D01*
X015113Y008110D01*
X015023Y008110D01*
X015133Y008000D01*
X020367Y008000D01*
X020431Y008064D01*
X020430Y008067D01*
X020430Y008293D01*
X020517Y008503D01*
X020677Y008663D01*
X020887Y008750D01*
X021113Y008750D01*
X021323Y008663D01*
X021483Y008503D01*
X021500Y008462D01*
X021517Y008503D01*
X021677Y008663D01*
X021887Y008750D01*
X021977Y008750D01*
X021867Y008860D01*
X016542Y008860D01*
X016570Y008793D01*
X016570Y008567D01*
X016483Y008357D01*
X016323Y008197D01*
X016113Y008110D01*
X015887Y008110D01*
X015677Y008197D01*
X015028Y008105D02*
X020430Y008105D01*
X020430Y008264D02*
X016390Y008264D01*
X016510Y008422D02*
X020483Y008422D01*
X020594Y008581D02*
X016570Y008581D01*
X016570Y008739D02*
X020860Y008739D01*
X021140Y008739D02*
X021860Y008739D01*
X021594Y008581D02*
X021406Y008581D01*
X021000Y008180D02*
X020500Y007680D01*
X015000Y007680D01*
X014000Y008680D01*
X014500Y008962D02*
X014483Y009003D01*
X014323Y009163D01*
X014113Y009250D01*
X014023Y009250D01*
X014383Y009610D01*
X024367Y009610D01*
X025308Y008669D01*
X025113Y008750D01*
X024887Y008750D01*
X024677Y008663D01*
X024517Y008503D01*
X024500Y008462D01*
X024483Y008503D01*
X024323Y008663D01*
X024113Y008750D01*
X023887Y008750D01*
X023677Y008663D01*
X023517Y008503D01*
X023500Y008462D01*
X023483Y008503D01*
X023323Y008663D01*
X023113Y008750D01*
X022887Y008750D01*
X022884Y008749D01*
X022181Y009451D01*
X022064Y009500D01*
X015436Y009500D01*
X015319Y009451D01*
X015229Y009361D01*
X015116Y009249D01*
X015113Y009250D01*
X014887Y009250D01*
X014677Y009163D01*
X014517Y009003D01*
X014500Y008962D01*
X014430Y009056D02*
X014570Y009056D01*
X014801Y009215D02*
X014199Y009215D01*
X014146Y009373D02*
X015240Y009373D01*
X014304Y009532D02*
X024446Y009532D01*
X024604Y009373D02*
X022260Y009373D01*
X022418Y009215D02*
X024763Y009215D01*
X024921Y009056D02*
X022577Y009056D01*
X022735Y008898D02*
X025080Y008898D01*
X025140Y008739D02*
X025238Y008739D01*
X024860Y008739D02*
X024140Y008739D01*
X023860Y008739D02*
X023140Y008739D01*
X023406Y008581D02*
X023594Y008581D01*
X024406Y008581D02*
X024594Y008581D01*
X025517Y008422D02*
X025555Y008422D01*
X025570Y008264D02*
X025714Y008264D01*
X025570Y008105D02*
X025872Y008105D01*
X026031Y007947D02*
X025520Y007947D01*
X025414Y007788D02*
X026189Y007788D01*
X026348Y007630D02*
X025160Y007630D01*
X022840Y007630D02*
X022320Y007630D01*
X022414Y007788D02*
X022586Y007788D01*
X022000Y008180D02*
X022000Y001680D01*
X028000Y001680D01*
X029000Y002680D01*
X029423Y002241D02*
X029577Y002241D01*
X029850Y002082D02*
X029150Y002082D01*
X028696Y001924D02*
X035210Y001924D01*
X035210Y002082D02*
X034150Y002082D01*
X033850Y002082D02*
X033150Y002082D01*
X032850Y002082D02*
X032150Y002082D01*
X031850Y002082D02*
X030150Y002082D01*
X030423Y002241D02*
X031577Y002241D01*
X031456Y002399D02*
X030544Y002399D01*
X030610Y002558D02*
X031390Y002558D01*
X031390Y002716D02*
X030610Y002716D01*
X030580Y002875D02*
X031420Y002875D01*
X031490Y003033D02*
X030510Y003033D01*
X030351Y003192D02*
X031649Y003192D01*
X031680Y003350D02*
X028320Y003350D01*
X028320Y003509D02*
X031680Y003509D01*
X031680Y003667D02*
X028320Y003667D01*
X028320Y003826D02*
X029176Y003826D01*
X029020Y003984D02*
X028320Y003984D01*
X028351Y003192D02*
X028649Y003192D01*
X029351Y003192D02*
X029649Y003192D01*
X029824Y003826D02*
X031652Y003826D01*
X031493Y003984D02*
X029980Y003984D01*
X029980Y004143D02*
X031335Y004143D01*
X031176Y004301D02*
X029980Y004301D01*
X029899Y004460D02*
X031018Y004460D01*
X030859Y004618D02*
X029820Y004618D01*
X029820Y004777D02*
X030701Y004777D01*
X030542Y004935D02*
X029820Y004935D01*
X029820Y005094D02*
X030384Y005094D01*
X030225Y005252D02*
X029820Y005252D01*
X029820Y005411D02*
X030067Y005411D01*
X029908Y005569D02*
X029820Y005569D01*
X030338Y006045D02*
X035210Y006045D01*
X035210Y006203D02*
X030180Y006203D01*
X030021Y006362D02*
X035210Y006362D01*
X035210Y006520D02*
X029863Y006520D01*
X029704Y006679D02*
X035210Y006679D01*
X035210Y006837D02*
X029546Y006837D01*
X029387Y006996D02*
X035210Y006996D01*
X035210Y007154D02*
X029229Y007154D01*
X029070Y007313D02*
X035210Y007313D01*
X035210Y007471D02*
X028912Y007471D01*
X028753Y007630D02*
X035210Y007630D01*
X035210Y007788D02*
X029787Y007788D01*
X029699Y007700D02*
X029980Y007981D01*
X029980Y008379D01*
X029736Y008623D01*
X029823Y008659D01*
X029983Y008820D01*
X030070Y009029D01*
X030070Y009256D01*
X029983Y009465D01*
X029823Y009626D01*
X029613Y009713D01*
X029387Y009713D01*
X029177Y009626D01*
X029017Y009465D01*
X028930Y009256D01*
X028930Y009029D01*
X029017Y008820D01*
X029177Y008659D01*
X029264Y008623D01*
X029020Y008379D01*
X029020Y007981D01*
X029301Y007700D01*
X029699Y007700D01*
X029945Y007947D02*
X035210Y007947D01*
X035210Y008105D02*
X029980Y008105D01*
X029980Y008264D02*
X035210Y008264D01*
X035210Y008422D02*
X029937Y008422D01*
X029778Y008581D02*
X035210Y008581D01*
X035210Y008739D02*
X029903Y008739D01*
X030015Y008898D02*
X035210Y008898D01*
X035210Y009056D02*
X030070Y009056D01*
X030070Y009215D02*
X035210Y009215D01*
X035210Y009373D02*
X030022Y009373D01*
X029917Y009532D02*
X035210Y009532D01*
X035210Y009690D02*
X029668Y009690D01*
X029332Y009690D02*
X026693Y009690D01*
X026851Y009532D02*
X029083Y009532D01*
X028978Y009373D02*
X027010Y009373D01*
X027168Y009215D02*
X028930Y009215D01*
X028930Y009056D02*
X027327Y009056D01*
X027485Y008898D02*
X028985Y008898D01*
X029097Y008739D02*
X027644Y008739D01*
X027802Y008581D02*
X029222Y008581D01*
X029063Y008422D02*
X027961Y008422D01*
X028119Y008264D02*
X029020Y008264D01*
X029020Y008105D02*
X028278Y008105D01*
X028436Y007947D02*
X029055Y007947D01*
X029213Y007788D02*
X028595Y007788D01*
X028000Y006430D02*
X024500Y009930D01*
X014250Y009930D01*
X013000Y008680D01*
X013390Y008264D02*
X013610Y008264D01*
X013677Y008197D02*
X013887Y008110D01*
X014113Y008110D01*
X014116Y008111D01*
X014727Y007500D01*
X012383Y007500D01*
X011692Y008191D01*
X011887Y008110D01*
X012113Y008110D01*
X012323Y008197D01*
X012483Y008357D01*
X012500Y008398D01*
X012517Y008357D01*
X012677Y008197D01*
X012887Y008110D01*
X013113Y008110D01*
X013323Y008197D01*
X013483Y008357D01*
X013500Y008398D01*
X013517Y008357D01*
X013677Y008197D01*
X014122Y008105D02*
X011778Y008105D01*
X011936Y007947D02*
X014281Y007947D01*
X014439Y007788D02*
X012095Y007788D01*
X012253Y007630D02*
X014598Y007630D01*
X016000Y007180D02*
X020500Y002680D01*
X021044Y002399D02*
X021680Y002399D01*
X021680Y002241D02*
X020923Y002241D01*
X020650Y002082D02*
X021680Y002082D01*
X022000Y001680D02*
X014750Y001680D01*
X012750Y003680D01*
X012270Y003667D02*
X009230Y003667D01*
X009230Y003509D02*
X012270Y003509D01*
X012401Y003350D02*
X009099Y003350D01*
X009230Y003481D02*
X008949Y003200D01*
X008551Y003200D01*
X008270Y003481D01*
X008270Y003879D01*
X008551Y004160D01*
X008949Y004160D01*
X009230Y003879D01*
X009230Y003481D01*
X009230Y003826D02*
X012270Y003826D01*
X012375Y003984D02*
X009125Y003984D01*
X008966Y004143D02*
X012534Y004143D01*
X012966Y004143D02*
X018585Y004143D01*
X018426Y004301D02*
X006988Y004301D01*
X007101Y004143D02*
X008534Y004143D01*
X008375Y003984D02*
X007177Y003984D01*
X007212Y003826D02*
X008270Y003826D01*
X008270Y003667D02*
X007212Y003667D01*
X007151Y003509D02*
X008270Y003509D01*
X008401Y003350D02*
X007037Y003350D01*
X007052Y003192D02*
X012786Y003192D01*
X012944Y003033D02*
X007157Y003033D01*
X007212Y002875D02*
X013103Y002875D01*
X013261Y002716D02*
X007212Y002716D01*
X007171Y002558D02*
X013420Y002558D01*
X013578Y002399D02*
X007086Y002399D01*
X006898Y002241D02*
X013737Y002241D01*
X013895Y002082D02*
X004790Y002082D01*
X004790Y001924D02*
X014054Y001924D01*
X014212Y001765D02*
X004790Y001765D01*
X004790Y001607D02*
X014371Y001607D01*
X014529Y001448D02*
X004790Y001448D01*
X004790Y001290D02*
X035210Y001290D01*
X035210Y001448D02*
X028221Y001448D01*
X028379Y001607D02*
X035210Y001607D01*
X035210Y001765D02*
X028538Y001765D01*
X027850Y002082D02*
X026447Y002082D01*
X025553Y002082D02*
X025150Y002082D01*
X023577Y002241D02*
X023423Y002241D01*
X023351Y003192D02*
X023649Y003192D01*
X024351Y003192D02*
X024649Y003192D01*
X025351Y003192D02*
X025432Y003192D01*
X021680Y003192D02*
X020851Y003192D01*
X021010Y003033D02*
X021680Y003033D01*
X021680Y002875D02*
X021080Y002875D01*
X021110Y002716D02*
X021680Y002716D01*
X021680Y002558D02*
X021110Y002558D01*
X020350Y002082D02*
X019650Y002082D01*
X019350Y002082D02*
X018650Y002082D01*
X018350Y002082D02*
X017650Y002082D01*
X017350Y002082D02*
X016650Y002082D01*
X016350Y002082D02*
X015650Y002082D01*
X015350Y002082D02*
X014801Y002082D01*
X014642Y002241D02*
X015077Y002241D01*
X014956Y002399D02*
X014484Y002399D01*
X014325Y002558D02*
X014890Y002558D01*
X014890Y002716D02*
X014167Y002716D01*
X014008Y002875D02*
X014920Y002875D01*
X014990Y003033D02*
X013850Y003033D01*
X013691Y003192D02*
X015149Y003192D01*
X015851Y003192D02*
X016149Y003192D01*
X016851Y003192D02*
X017149Y003192D01*
X017851Y003192D02*
X018149Y003192D01*
X018851Y003192D02*
X019149Y003192D01*
X019377Y003350D02*
X013533Y003350D01*
X013374Y003509D02*
X019219Y003509D01*
X019060Y003667D02*
X013230Y003667D01*
X013230Y003826D02*
X018902Y003826D01*
X018743Y003984D02*
X013125Y003984D01*
X015923Y002241D02*
X016077Y002241D01*
X016923Y002241D02*
X017077Y002241D01*
X017923Y002241D02*
X018077Y002241D01*
X018923Y002241D02*
X019077Y002241D01*
X019923Y002241D02*
X020077Y002241D01*
X020283Y003350D02*
X021680Y003350D01*
X021680Y003509D02*
X020124Y003509D01*
X019966Y003667D02*
X021680Y003667D01*
X021680Y003826D02*
X019807Y003826D01*
X019649Y003984D02*
X021680Y003984D01*
X021680Y004143D02*
X019490Y004143D01*
X019332Y004301D02*
X021680Y004301D01*
X021680Y004460D02*
X019173Y004460D01*
X019015Y004618D02*
X021680Y004618D01*
X021680Y004777D02*
X018856Y004777D01*
X018698Y004935D02*
X021680Y004935D01*
X021680Y005094D02*
X018539Y005094D01*
X018381Y005252D02*
X021680Y005252D01*
X021680Y005411D02*
X018222Y005411D01*
X018064Y005569D02*
X021680Y005569D01*
X021680Y005728D02*
X017905Y005728D01*
X017747Y005886D02*
X021680Y005886D01*
X021680Y006045D02*
X017588Y006045D01*
X017430Y006203D02*
X021680Y006203D01*
X021680Y006362D02*
X017271Y006362D01*
X017113Y006520D02*
X021680Y006520D01*
X021680Y006679D02*
X016954Y006679D01*
X016796Y006837D02*
X021680Y006837D01*
X021680Y006996D02*
X016637Y006996D01*
X016479Y007154D02*
X021680Y007154D01*
X021680Y007313D02*
X016320Y007313D01*
X016000Y007180D02*
X012250Y007180D01*
X011250Y008180D01*
X011250Y012680D01*
X009152Y014778D01*
X006602Y014778D01*
X006067Y015079D02*
X004790Y015079D01*
X004790Y014921D02*
X006001Y014921D01*
X005992Y014762D02*
X004790Y014762D01*
X004790Y014604D02*
X006015Y014604D01*
X006080Y014445D02*
X004790Y014445D01*
X004790Y014287D02*
X006232Y014287D01*
X006089Y014128D02*
X004790Y014128D01*
X004790Y013970D02*
X006021Y013970D01*
X005992Y013811D02*
X004790Y013811D01*
X004790Y013653D02*
X005994Y013653D01*
X006060Y013494D02*
X004790Y013494D01*
X004790Y013336D02*
X006183Y013336D01*
X006138Y013177D02*
X004790Y013177D01*
X004790Y013019D02*
X006042Y013019D01*
X005992Y012860D02*
X004790Y012860D01*
X004790Y012702D02*
X005992Y012702D01*
X006040Y012543D02*
X004790Y012543D01*
X004790Y012385D02*
X006134Y012385D01*
X006187Y012226D02*
X004790Y012226D01*
X004790Y012068D02*
X006062Y012068D01*
X005996Y011909D02*
X004790Y011909D01*
X004790Y011751D02*
X005992Y011751D01*
X006019Y011592D02*
X004790Y011592D01*
X004790Y011434D02*
X006085Y011434D01*
X006236Y011275D02*
X004790Y011275D01*
X004790Y011117D02*
X006082Y011117D01*
X006016Y010958D02*
X004790Y010958D01*
X004790Y010800D02*
X005992Y010800D01*
X005999Y010641D02*
X004790Y010641D01*
X004790Y010483D02*
X006065Y010483D01*
X006194Y010324D02*
X004790Y010324D01*
X004790Y010166D02*
X006127Y010166D01*
X006037Y010007D02*
X004790Y010007D01*
X004790Y009849D02*
X005992Y009849D01*
X005992Y009690D02*
X004790Y009690D01*
X004790Y009532D02*
X006044Y009532D01*
X006145Y009373D02*
X004790Y009373D01*
X004790Y009215D02*
X006176Y009215D01*
X006057Y009056D02*
X004790Y009056D01*
X004790Y008898D02*
X005992Y008898D01*
X005992Y008739D02*
X004790Y008739D01*
X004790Y008581D02*
X006024Y008581D01*
X006096Y008422D02*
X004790Y008422D01*
X004790Y008264D02*
X006225Y008264D01*
X006077Y008105D02*
X004790Y008105D01*
X004790Y007947D02*
X006012Y007947D01*
X005992Y007788D02*
X004790Y007788D01*
X004790Y007630D02*
X006004Y007630D01*
X006069Y007471D02*
X004790Y007471D01*
X004790Y007313D02*
X006206Y007313D01*
X006115Y007154D02*
X004790Y007154D01*
X004790Y006996D02*
X006032Y006996D01*
X005992Y006837D02*
X004790Y006837D01*
X004790Y006679D02*
X005992Y006679D01*
X006049Y006520D02*
X004790Y006520D01*
X004790Y006362D02*
X006157Y006362D01*
X006164Y006203D02*
X004790Y006203D01*
X004790Y006045D02*
X006052Y006045D01*
X005992Y005886D02*
X004790Y005886D01*
X004790Y005728D02*
X005992Y005728D01*
X006029Y005569D02*
X004790Y005569D01*
X004790Y005411D02*
X006108Y005411D01*
X006213Y005252D02*
X004790Y005252D01*
X004790Y005094D02*
X006073Y005094D01*
X006007Y004935D02*
X004790Y004935D01*
X004790Y004777D02*
X005992Y004777D01*
X006009Y004618D02*
X004790Y004618D01*
X004790Y004460D02*
X006074Y004460D01*
X006217Y004301D02*
X004790Y004301D01*
X004790Y004143D02*
X006104Y004143D01*
X006027Y003984D02*
X004790Y003984D01*
X004790Y003826D02*
X005992Y003826D01*
X005992Y003667D02*
X004790Y003667D01*
X004790Y003509D02*
X006054Y003509D01*
X006168Y003350D02*
X004790Y003350D01*
X004790Y003192D02*
X006153Y003192D01*
X006048Y003033D02*
X004790Y003033D01*
X004790Y002875D02*
X005992Y002875D01*
X005992Y002716D02*
X004790Y002716D01*
X004790Y002558D02*
X006034Y002558D01*
X006119Y002399D02*
X004790Y002399D01*
X004790Y002241D02*
X006307Y002241D01*
X004790Y001131D02*
X035210Y001131D01*
X035210Y000973D02*
X004790Y000973D01*
X004790Y000814D02*
X035210Y000814D01*
X035210Y000656D02*
X004790Y000656D01*
X004790Y000497D02*
X035210Y000497D01*
X035210Y000470D02*
X004790Y000470D01*
X004790Y019140D01*
X035210Y019140D01*
X035210Y000470D01*
X035210Y002241D02*
X034423Y002241D01*
X034544Y002399D02*
X035210Y002399D01*
X035210Y002558D02*
X034610Y002558D01*
X034610Y002716D02*
X035210Y002716D01*
X035210Y002875D02*
X034580Y002875D01*
X034510Y003033D02*
X035210Y003033D01*
X035210Y003192D02*
X034351Y003192D01*
X033649Y003192D02*
X033351Y003192D01*
X032649Y003192D02*
X032351Y003192D01*
X032320Y003350D02*
X035210Y003350D01*
X035210Y003509D02*
X032320Y003509D01*
X032320Y003667D02*
X035210Y003667D01*
X035210Y003826D02*
X032320Y003826D01*
X032320Y003984D02*
X035210Y003984D01*
X035210Y004143D02*
X032240Y004143D01*
X032082Y004301D02*
X035210Y004301D01*
X035210Y004460D02*
X031923Y004460D01*
X031765Y004618D02*
X035210Y004618D01*
X035210Y004777D02*
X031606Y004777D01*
X031448Y004935D02*
X035210Y004935D01*
X035210Y005094D02*
X031289Y005094D01*
X031131Y005252D02*
X035210Y005252D01*
X035210Y005411D02*
X030972Y005411D01*
X030814Y005569D02*
X035210Y005569D01*
X035210Y005728D02*
X030655Y005728D01*
X030497Y005886D02*
X035210Y005886D01*
X032000Y003930D02*
X032000Y002680D01*
X032423Y002241D02*
X032577Y002241D01*
X033423Y002241D02*
X033577Y002241D01*
X032000Y003930D02*
X024750Y011180D01*
X024750Y011930D01*
X025091Y011592D02*
X028409Y011592D01*
X028270Y011731D02*
X028551Y011450D01*
X028949Y011450D01*
X029230Y011731D01*
X029230Y012129D01*
X028949Y012410D01*
X028551Y012410D01*
X028270Y012129D01*
X028270Y011731D01*
X028270Y011751D02*
X025230Y011751D01*
X025230Y011909D02*
X028270Y011909D01*
X028270Y012068D02*
X025230Y012068D01*
X025133Y012226D02*
X028367Y012226D01*
X028526Y012385D02*
X024974Y012385D01*
X024526Y012385D02*
X017248Y012385D01*
X017090Y012543D02*
X035210Y012543D01*
X035210Y012385D02*
X028974Y012385D01*
X029133Y012226D02*
X035210Y012226D01*
X035210Y012068D02*
X034291Y012068D01*
X034199Y012160D02*
X033801Y012160D01*
X033520Y011879D01*
X033520Y011481D01*
X033801Y011200D01*
X034199Y011200D01*
X034480Y011481D01*
X034480Y011879D01*
X034199Y012160D01*
X033709Y012068D02*
X031541Y012068D01*
X031449Y012160D02*
X031051Y012160D01*
X030770Y011879D01*
X030770Y011481D01*
X031051Y011200D01*
X031449Y011200D01*
X031730Y011481D01*
X031730Y011879D01*
X031449Y012160D01*
X031700Y011909D02*
X033550Y011909D01*
X033520Y011751D02*
X031730Y011751D01*
X031730Y011592D02*
X033520Y011592D01*
X033568Y011434D02*
X031682Y011434D01*
X031524Y011275D02*
X033726Y011275D01*
X034274Y011275D02*
X035210Y011275D01*
X035210Y011117D02*
X029907Y011117D01*
X029983Y011040D02*
X029823Y011201D01*
X029613Y011287D01*
X029387Y011287D01*
X029177Y011201D01*
X029017Y011040D01*
X028930Y010831D01*
X028930Y010604D01*
X029017Y010395D01*
X029177Y010234D01*
X029387Y010147D01*
X029613Y010147D01*
X029823Y010234D01*
X029983Y010395D01*
X030070Y010604D01*
X030070Y010831D01*
X029983Y011040D01*
X030017Y010958D02*
X035210Y010958D01*
X035210Y010800D02*
X030070Y010800D01*
X030070Y010641D02*
X035210Y010641D01*
X035210Y010483D02*
X030020Y010483D01*
X029913Y010324D02*
X035210Y010324D01*
X035210Y010166D02*
X029657Y010166D01*
X029343Y010166D02*
X026217Y010166D01*
X026059Y010324D02*
X029087Y010324D01*
X028980Y010483D02*
X025900Y010483D01*
X025742Y010641D02*
X028930Y010641D01*
X028930Y010800D02*
X025583Y010800D01*
X025425Y010958D02*
X028983Y010958D01*
X029093Y011117D02*
X025266Y011117D01*
X025108Y011275D02*
X029357Y011275D01*
X029643Y011275D02*
X030976Y011275D01*
X030818Y011434D02*
X025070Y011434D01*
X024430Y011434D02*
X018199Y011434D01*
X018041Y011592D02*
X024409Y011592D01*
X024270Y011751D02*
X017882Y011751D01*
X017724Y011909D02*
X024270Y011909D01*
X024270Y012068D02*
X017565Y012068D01*
X017407Y012226D02*
X024367Y012226D01*
X024430Y011275D02*
X018358Y011275D01*
X018516Y011117D02*
X024430Y011117D01*
X024403Y010324D02*
X011570Y010324D01*
X011570Y010166D02*
X014033Y010166D01*
X013874Y010007D02*
X011570Y010007D01*
X011570Y009849D02*
X013716Y009849D01*
X013557Y009690D02*
X011570Y009690D01*
X011570Y009532D02*
X013399Y009532D01*
X013240Y009373D02*
X011570Y009373D01*
X011570Y009215D02*
X011801Y009215D01*
X012199Y009215D02*
X012801Y009215D01*
X012570Y009056D02*
X012430Y009056D01*
X012390Y008264D02*
X012610Y008264D01*
X011506Y007471D02*
X007135Y007471D01*
X007201Y007630D02*
X011348Y007630D01*
X011189Y007788D02*
X007212Y007788D01*
X007193Y007947D02*
X011031Y007947D01*
X010935Y008105D02*
X007127Y008105D01*
X006980Y008264D02*
X010930Y008264D01*
X010930Y008422D02*
X007109Y008422D01*
X007181Y008581D02*
X010930Y008581D01*
X010930Y008739D02*
X007212Y008739D01*
X007212Y008898D02*
X010930Y008898D01*
X010930Y009056D02*
X007148Y009056D01*
X007029Y009215D02*
X010930Y009215D01*
X010930Y009373D02*
X007060Y009373D01*
X007160Y009532D02*
X010930Y009532D01*
X010930Y009690D02*
X007212Y009690D01*
X007212Y009849D02*
X010930Y009849D01*
X010930Y010007D02*
X007168Y010007D01*
X007078Y010166D02*
X010930Y010166D01*
X010930Y010324D02*
X007011Y010324D01*
X007140Y010483D02*
X010930Y010483D01*
X010930Y010641D02*
X007206Y010641D01*
X007212Y010800D02*
X010930Y010800D01*
X010930Y010958D02*
X007188Y010958D01*
X007123Y011117D02*
X010930Y011117D01*
X010930Y011275D02*
X006968Y011275D01*
X007120Y011434D02*
X010930Y011434D01*
X010930Y011592D02*
X007185Y011592D01*
X007212Y011751D02*
X010930Y011751D01*
X010930Y011909D02*
X007209Y011909D01*
X007143Y012068D02*
X010930Y012068D01*
X010930Y012226D02*
X007017Y012226D01*
X007071Y012385D02*
X010930Y012385D01*
X010930Y012543D02*
X007165Y012543D01*
X007212Y012702D02*
X010776Y012702D01*
X010617Y012860D02*
X007212Y012860D01*
X007163Y013019D02*
X010459Y013019D01*
X010300Y013177D02*
X007066Y013177D01*
X007022Y013336D02*
X010142Y013336D01*
X009983Y013494D02*
X007145Y013494D01*
X007210Y013653D02*
X009825Y013653D01*
X009666Y013811D02*
X007212Y013811D01*
X007183Y013970D02*
X009508Y013970D01*
X009349Y014128D02*
X007115Y014128D01*
X006973Y014287D02*
X009191Y014287D01*
X009032Y014445D02*
X007125Y014445D01*
X006199Y015238D02*
X004790Y015238D01*
X004790Y015396D02*
X006122Y015396D01*
X006035Y015555D02*
X004790Y015555D01*
X004790Y015713D02*
X005992Y015713D01*
X005992Y015872D02*
X004790Y015872D01*
X004790Y016030D02*
X006046Y016030D01*
X006150Y016189D02*
X004790Y016189D01*
X004790Y016347D02*
X006171Y016347D01*
X006055Y016506D02*
X004790Y016506D01*
X004790Y016664D02*
X005992Y016664D01*
X005992Y016823D02*
X004790Y016823D01*
X004790Y016981D02*
X006026Y016981D01*
X006101Y017140D02*
X004790Y017140D01*
X004790Y017298D02*
X006018Y017298D01*
X005992Y017457D02*
X004790Y017457D01*
X004790Y017615D02*
X005992Y017615D01*
X005992Y017774D02*
X004790Y017774D01*
X004790Y017932D02*
X005992Y017932D01*
X005992Y018091D02*
X004790Y018091D01*
X004790Y018249D02*
X006014Y018249D01*
X004790Y018408D02*
X026032Y018408D01*
X026000Y018331D02*
X026000Y018089D01*
X026093Y017864D01*
X026264Y017693D01*
X026489Y017600D01*
X026731Y017600D01*
X026956Y017693D01*
X027127Y017864D01*
X027220Y018089D01*
X027220Y018331D01*
X027127Y018556D01*
X026956Y018727D01*
X026731Y018820D01*
X026489Y018820D01*
X026264Y018727D01*
X026093Y018556D01*
X026000Y018331D01*
X026000Y018249D02*
X007190Y018249D01*
X007212Y018091D02*
X026000Y018091D01*
X026065Y017932D02*
X007212Y017932D01*
X007212Y017774D02*
X013415Y017774D01*
X013270Y017615D02*
X007212Y017615D01*
X007212Y017457D02*
X013270Y017457D01*
X013270Y017298D02*
X007186Y017298D01*
X007104Y017140D02*
X013362Y017140D01*
X014230Y017457D02*
X029680Y017457D01*
X029680Y017615D02*
X028548Y017615D01*
X028511Y017600D02*
X028736Y017693D01*
X028907Y017864D01*
X029000Y018089D01*
X029000Y018331D01*
X028907Y018556D01*
X028736Y018727D01*
X028511Y018820D01*
X028269Y018820D01*
X028044Y018727D01*
X027873Y018556D01*
X027780Y018331D01*
X027780Y018089D01*
X027873Y017864D01*
X028044Y017693D01*
X028269Y017600D01*
X028511Y017600D01*
X028232Y017615D02*
X026768Y017615D01*
X027036Y017774D02*
X027964Y017774D01*
X027845Y017932D02*
X027155Y017932D01*
X027220Y018091D02*
X027780Y018091D01*
X027780Y018249D02*
X027220Y018249D01*
X027188Y018408D02*
X027812Y018408D01*
X027883Y018566D02*
X027117Y018566D01*
X026958Y018725D02*
X028042Y018725D01*
X028738Y018725D02*
X035210Y018725D01*
X035210Y018883D02*
X004790Y018883D01*
X004790Y018725D02*
X026262Y018725D01*
X026103Y018566D02*
X004790Y018566D01*
X004790Y019042D02*
X035210Y019042D01*
X035210Y018566D02*
X028897Y018566D01*
X028968Y018408D02*
X035210Y018408D01*
X035210Y018249D02*
X029000Y018249D01*
X029000Y018091D02*
X035210Y018091D01*
X035210Y017298D02*
X034570Y017298D01*
X034516Y017140D02*
X035210Y017140D01*
X035210Y016981D02*
X034357Y016981D01*
X033643Y016981D02*
X033357Y016981D01*
X033801Y016160D02*
X033520Y015879D01*
X033520Y015481D01*
X033801Y015200D01*
X034199Y015200D01*
X034480Y015481D01*
X034480Y015879D01*
X034199Y016160D01*
X033801Y016160D01*
X033671Y016030D02*
X031579Y016030D01*
X031449Y016160D02*
X031051Y016160D01*
X030770Y015879D01*
X030770Y015481D01*
X031051Y015200D01*
X031449Y015200D01*
X031730Y015481D01*
X031730Y015879D01*
X031449Y016160D01*
X031730Y015872D02*
X033520Y015872D01*
X033520Y015713D02*
X031730Y015713D01*
X031730Y015555D02*
X033520Y015555D01*
X033605Y015396D02*
X031645Y015396D01*
X031486Y015238D02*
X033764Y015238D01*
X034236Y015238D02*
X035210Y015238D01*
X035210Y015396D02*
X034395Y015396D01*
X034480Y015555D02*
X035210Y015555D01*
X035210Y015713D02*
X034480Y015713D01*
X034480Y015872D02*
X035210Y015872D01*
X035210Y016030D02*
X034329Y016030D01*
X035210Y016189D02*
X028684Y016189D01*
X028736Y016167D02*
X028511Y016260D01*
X028269Y016260D01*
X028044Y016167D01*
X027873Y015996D01*
X027780Y015771D01*
X027780Y015529D01*
X027873Y015304D01*
X028044Y015133D01*
X028269Y015040D01*
X028511Y015040D01*
X028736Y015133D01*
X028907Y015304D01*
X029000Y015529D01*
X029000Y015771D01*
X028907Y015996D01*
X028736Y016167D01*
X028873Y016030D02*
X030921Y016030D01*
X030770Y015872D02*
X028959Y015872D01*
X029000Y015713D02*
X030770Y015713D01*
X030770Y015555D02*
X029000Y015555D01*
X028945Y015396D02*
X030855Y015396D01*
X031014Y015238D02*
X028840Y015238D01*
X028606Y015079D02*
X035210Y015079D01*
X035210Y014921D02*
X025630Y014921D01*
X025703Y015079D02*
X026394Y015079D01*
X026489Y015040D02*
X026264Y015133D01*
X026093Y015304D01*
X026000Y015529D01*
X026000Y015771D01*
X026093Y015996D01*
X026264Y016167D01*
X026489Y016260D01*
X026731Y016260D01*
X026956Y016167D01*
X027127Y015996D01*
X027220Y015771D01*
X027220Y015529D01*
X027127Y015304D01*
X026956Y015133D01*
X026731Y015040D01*
X026489Y015040D01*
X026826Y015079D02*
X028174Y015079D01*
X027940Y015238D02*
X027060Y015238D01*
X027165Y015396D02*
X027835Y015396D01*
X027780Y015555D02*
X027220Y015555D01*
X027220Y015713D02*
X027780Y015713D01*
X027821Y015872D02*
X027179Y015872D01*
X027093Y016030D02*
X027907Y016030D01*
X028096Y016189D02*
X026904Y016189D01*
X026316Y016189D02*
X025363Y016189D01*
X025540Y016030D02*
X026127Y016030D01*
X026041Y015872D02*
X025665Y015872D01*
X025731Y015713D02*
X026000Y015713D01*
X026000Y015555D02*
X025775Y015555D01*
X025775Y015396D02*
X026055Y015396D01*
X026160Y015238D02*
X025768Y015238D01*
X025472Y014762D02*
X035210Y014762D01*
X035210Y014604D02*
X025199Y014604D01*
X024016Y015555D02*
X015548Y015555D01*
X015676Y015713D02*
X024061Y015713D01*
X024126Y015872D02*
X015726Y015872D01*
X015724Y016030D02*
X024252Y016030D01*
X024428Y016189D02*
X015658Y016189D01*
X015488Y016347D02*
X035210Y016347D01*
X035210Y016506D02*
X015499Y016506D01*
X015658Y016664D02*
X035210Y016664D01*
X035210Y016823D02*
X015726Y016823D01*
X014230Y017615D02*
X026452Y017615D01*
X026184Y017774D02*
X014085Y017774D01*
X014933Y014287D02*
X010648Y014287D01*
X011570Y012702D02*
X016026Y012702D01*
X016184Y012543D02*
X011570Y012543D01*
X011570Y012385D02*
X016343Y012385D01*
X016501Y012226D02*
X011570Y012226D01*
X011570Y012068D02*
X016660Y012068D01*
X016818Y011909D02*
X011570Y011909D01*
X011570Y011751D02*
X016977Y011751D01*
X017135Y011592D02*
X011570Y011592D01*
X011570Y011434D02*
X017294Y011434D01*
X017452Y011275D02*
X011570Y011275D01*
X011570Y011117D02*
X017611Y011117D01*
X017769Y010958D02*
X011570Y010958D01*
X011570Y010800D02*
X017928Y010800D01*
X018086Y010641D02*
X011570Y010641D01*
X011570Y010483D02*
X018245Y010483D01*
X016931Y012702D02*
X035210Y012702D01*
X035210Y012860D02*
X016773Y012860D01*
X016614Y013019D02*
X035210Y013019D01*
X035210Y013177D02*
X016456Y013177D01*
X016297Y013336D02*
X035210Y013336D01*
X035210Y013494D02*
X016139Y013494D01*
X015980Y013653D02*
X035210Y013653D01*
X035210Y013811D02*
X015822Y013811D01*
X015726Y013970D02*
X035210Y013970D01*
X035210Y014128D02*
X015683Y014128D01*
X026376Y010007D02*
X035210Y010007D01*
X035210Y009849D02*
X026534Y009849D01*
X029091Y011592D02*
X030770Y011592D01*
X030770Y011751D02*
X029230Y011751D01*
X029230Y011909D02*
X030800Y011909D01*
X030959Y012068D02*
X029230Y012068D01*
X034450Y011909D02*
X035210Y011909D01*
X035210Y011751D02*
X034480Y011751D01*
X034480Y011592D02*
X035210Y011592D01*
X035210Y011434D02*
X034432Y011434D01*
X030787Y017774D02*
X030713Y017774D01*
X030554Y017932D02*
X030946Y017932D01*
X029946Y017932D02*
X028935Y017932D01*
X028816Y017774D02*
X029787Y017774D01*
X021586Y007788D02*
X021414Y007788D01*
X021160Y007630D02*
X021680Y007630D01*
X021680Y007471D02*
X020744Y007471D01*
X017158Y005569D02*
X007176Y005569D01*
X007212Y005728D02*
X017000Y005728D01*
X016841Y005886D02*
X007212Y005886D01*
X007152Y006045D02*
X016683Y006045D01*
X016524Y006203D02*
X007040Y006203D01*
X007048Y006362D02*
X016366Y006362D01*
X016207Y006520D02*
X007156Y006520D01*
X007212Y006679D02*
X016049Y006679D01*
X015890Y006837D02*
X007212Y006837D01*
X007173Y006996D02*
X011982Y006996D01*
X011823Y007154D02*
X007089Y007154D01*
X006999Y007313D02*
X011665Y007313D01*
X007198Y004935D02*
X017792Y004935D01*
X017634Y005094D02*
X007132Y005094D01*
X006991Y005252D02*
X017475Y005252D01*
X017317Y005411D02*
X007097Y005411D01*
X007212Y004777D02*
X017951Y004777D01*
X018109Y004618D02*
X007196Y004618D01*
X007131Y004460D02*
X018268Y004460D01*
M02*
